<svg xmlns="http://www.w3.org/2000/svg" viewBox="0 0 18 18">
  <defs>
    <linearGradient id="a" x1="9" y1="16.8" x2="9" y2="1.2" gradientUnits="userSpaceOnUse">
      <stop offset="0" stop-color="#198ab3" />
      <stop offset=".1" stop-color="#1f9dc4" />
      <stop offset=".2" stop-color="#28b5d9" />
      <stop offset=".4" stop-color="#2dc6e9" />
      <stop offset=".6" stop-color="#31d1f2" />
      <stop offset=".8" stop-color="#32d4f5" />
    </linearGradient>
    <linearGradient id="b" x1="8.4" y1="11.3" x2="8.4" y2="14.5" gradientUnits="userSpaceOnUse">
      <stop offset="0" stop-color="#c69aeb" />
      <stop offset="1" stop-color="#6f4bb2" />
    </linearGradient>
  </defs>
  <path d="M14.2 5.9a4.8 4.8 0 0 0-5-4.7 5 5 0 0 0-4.7 3.3A4.6 4.6 0 0 0 .5 9a4.7 4.7 0 0 0 4.8 4.5 3 3 0 0 0 .4 0H7a1.5 1.5 0 0 1-.1-.6 1.5 1.5 0 0 1 .2-.7H5.3A3.4 3.4 0 0 1 1.8 9a3.3 3.3 0 0 1 2.9-3.3h.7l.3-.8a3.7 3.7 0 0 1 3.5-2.5A3.6 3.6 0 0 1 13 6v1l1.1.2a2.6 2.6 0 0 1 2.3 2.4 2.6 2.6 0 0 1-2.7 2.6h-1.1a4 4 0 0 0-4-3.2.6.6 0 1 0 0 1.3 2.6 2.6 0 0 1 0 5.3.6.6 0 1 0 0 1.2 4 4 0 0 0 4-3.3h1a.6.6 0 0 0 .2 0 4 4 0 0 0 3.8-3.9A3.9 3.9 0 0 0 14.2 6Z" fill="url(#a)" />
  <rect x="6.8" y="11.3" width="3.1" height="3.1" rx="1.5" fill="url(#b)" />
</svg>