<svg xmlns="http://www.w3.org/2000/svg" viewBox="0 0 18 18">
  <path fill="#50e6ff" d="M13.4 7.4 9 4.4l-4.4 3v5.8h8.8V7.4z" />
  <path d="M4.6 7.4v5.8L9 10.3Z" fill="#32bedd" />
  <path d="M13.4 7.4 9 10.3l4.4 2.9Z" fill="#198ab3" />
  <path fill="url(#2642abfa-0b02-4e6d-b452-8c2ab461c010)" d="m9 10.3-4.4 2.9h8.8L9 10.3z" />
  <g fill="#999">
    <path d="M1 1.4h1.4V5a.3.3 0 0 1-.3.3H.8A.3.3 0 0 1 .5 5V2a.6.6 0 0 1 .6-.6Z" />
    <path d="M1 1.4h1.4V5a.3.3 0 0 1-.3.3H.8A.3.3 0 0 1 .5 5V2a.6.6 0 0 1 .6-.6Z" opacity=".5" />
  </g>
  <g fill="#999">
    <path d="M15.6 1.4H17a.6.6 0 0 1 .6.6v3a.3.3 0 0 1-.3.3H16a.3.3 0 0 1-.3-.3V1.4Z" />
    <path d="M15.6 1.4H17a.6.6 0 0 1 .6.6v3a.3.3 0 0 1-.3.3H16a.3.3 0 0 1-.3-.3V1.4Z" opacity=".5" />
  </g>
  <path d="M17.5 2v1.3H.5V2a.6.6 0 0 1 .6-.6h15.8a.6.6 0 0 1 .6.6Z" fill="#949494" />
  <g fill="#999">
    <path d="M.8 12.7H2a.3.3 0 0 1 .3.3v3.6H1a.6.6 0 0 1-.6-.6v-3a.3.3 0 0 1 .3-.3Z" />
    <path d="M.8 12.7H2a.3.3 0 0 1 .3.3v3.6H1a.6.6 0 0 1-.6-.6v-3a.3.3 0 0 1 .3-.3Z" opacity=".5" />
  </g>
  <g fill="#999">
    <path d="M16 12.7h1.2a.3.3 0 0 1 .3.3v3a.6.6 0 0 1-.6.5h-1.3V13a.3.3 0 0 1 .3-.3Z" />
    <path d="M16 12.7h1.2a.3.3 0 0 1 .3.3v3a.6.6 0 0 1-.6.5h-1.3V13a.3.3 0 0 1 .3-.3Z" opacity=".5" />
  </g>
  <path d="M.5 16v-1.3h17V16a.6.6 0 0 1-.6.6H1.1a.6.6 0 0 1-.6-.6Z" fill="#949494" />
</svg>