<svg fill="none" xmlns="http://www.w3.org/2000/svg" viewBox="0 0 125 125">
  <path d="m43.8 107 16.6 16.6h26.8a6 6 0 0 0 6-6v-62L43.7 105c-.6.5-.6 1.5 0 2Z" fill="#235DC1" />
  <path d="M1.6 38v27l16.6 16.6c.6.5 1.5.5 2 0L69.7 32h-62a6 6 0 0 0-6 6Z" fill="#3B6EC6" />
  <path d="M63.8 8 23.9 68.8c-1.3 2-1 4.8.7 6.5L50.1 101c1.8 1.7 4.5 2 6.6.7l61-40c3.9-2.5 6.2-6.8 6.2-11.4V7.7a6 6 0 0 0-6-6H75.2c-4.6 0-9 2.3-11.5 6.2Z" fill="#5D8DE4" />
  <path d="M10.6 115.2V93.7h-9v30h30.6v-8.5H10.6Z" fill="#9FBBF0" />
  <path d="M93.3 46.9a15.2 15.2 0 1 0 0-30.4 15.2 15.2 0 0 0 0 30.4Z" fill="#ADC5F2" />
  <path d="M66.1 52 33.6 84.5l7.5 7.5 32.5-32.5-7.5-7.5Z" fill="#6C9AEE" />
  <path d="M34.7 98.4 41 92l-7.5-7.5-6.4 6.4 7.5 7.5Z" fill="#88ACEF" />
</svg>