<svg xmlns="http://www.w3.org/2000/svg" viewBox="0 0 18 18">
  <defs>
    <radialGradient id="a" cx="-105" cy="-10.4" r="6" gradientTransform="matrix(1.036 0 0 1.027 117.7 19.6)" gradientUnits="userSpaceOnUse">
      <stop offset=".2" stop-color="#5ea0ef" />
      <stop offset="1" stop-color="#0078d4" />
    </radialGradient>
    <clipPath id="b">
      <path d="M15 7.5A6.1 6.1 0 1 1 7.6 3 6.1 6.1 0 0 1 15 7.5Z" fill="none" />
    </clipPath>
  </defs>
  <path d="M3 5.3a.2.2 0 0 1-.2-.2 2 2 0 0 0-2-2 .2.2 0 0 1-.2-.2.2.2 0 0 1 .2-.2 2 2 0 0 0 2-2A.2.2 0 0 1 3 .5a.2.2 0 0 1 .1.2 2 2 0 0 0 2 2 .2.2 0 0 1 .2.2.2.2 0 0 1-.2.2 2 2 0 0 0-2 2 .2.2 0 0 1-.1.2Zm12.6 12.2a.1.1 0 0 1-.1-.2 1.6 1.6 0 0 0-1.6-1.6.1.1 0 0 1-.2-.1.1.1 0 0 1 .2-.2 1.6 1.6 0 0 0 1.6-1.6.1.1 0 0 1 .1-.1.1.1 0 0 1 .2.1 1.6 1.6 0 0 0 1.6 1.6.1.1 0 1 1 0 .3 1.6 1.6 0 0 0-1.6 1.6.1.1 0 0 1-.2.2Z" fill="#50e6ff" />
  <path d="M15 7.5A6.1 6.1 0 1 1 7.6 3 6.1 6.1 0 0 1 15 7.5Z" fill="url(#a)" />
  <g clip-path="url(#b)" fill="#f2f2f2">
    <path d="M5.7 13.1a1.6 1.6 0 1 0 0-3.3 1.3 1.3 0 0 0 0-.1 1.7 1.7 0 0 0-1.6-1.6H2.8a6.3 6.3 0 0 0 1.6 5ZM15 7.8a6 6 0 0 0-1.4-3 1.8 1.8 0 0 0-.3 0A1.8 1.8 0 0 0 11 6.5a2 2 0 0 0-.2 0 1.7 1.7 0 0 0-.5 3.3 1.5 1.5 0 0 0 .5.1h2A13.5 13.5 0 0 0 15 8Z" />
  </g>
  <path d="M17.2 3.8c-.6-1-2.1-1.4-4.2-1.1a14.6 14.6 0 0 0-2 .4 6.5 6.5 0 0 1 1.5.8l.7-.1a7.5 7.5 0 0 1 1.1-.1 2.2 2.2 0 0 1 2 .7c.3.6 0 1.7-1 3a16.7 16.7 0 0 1-4.7 4 16.8 16.8 0 0 1-5.8 2.3c-1.6.2-2.7 0-3-.6s-.1-1.8.8-3l.3-.4a6.3 6.3 0 0 1 0-1.7 11.6 11.6 0 0 0-1.1 1.4C.5 11.1.2 12.6.8 13.6a3.2 3.2 0 0 0 3 1.3 8.4 8.4 0 0 0 1.2-.1 17.9 17.9 0 0 0 6.2-2.4 17.8 17.8 0 0 0 5-4.4c1.3-1.6 1.6-3.1 1-4.2Z" fill="#50e6ff" />
</svg>