<svg xmlns="http://www.w3.org/2000/svg" viewBox="0 0 18 18">
  <defs>
    <linearGradient id="a" x1="9" y1="15.8" x2="9" y2="5.8" gradientUnits="userSpaceOnUse">
      <stop offset="0" stop-color="#b3b3b3" />
      <stop offset=".3" stop-color="#c1c1c1" />
      <stop offset="1" stop-color="#e6e6e6" />
    </linearGradient>
  </defs>
  <path d="M.5 5.8h17v9.5a.6.6 0 0 1-.6.5H1.1a.6.6 0 0 1-.6-.5V5.8Z" fill="url(#a)" />
  <path d="M1 2.2h16a.6.6 0 0 1 .5.5v3H.5v-3a.6.6 0 0 1 .6-.5Z" fill="#37c2b1" />
  <path d="M2.8 6.9h12.4a.3.3 0 0 1 .2.3v1.4a.3.3 0 0 1-.2.2H2.8a.3.3 0 0 1-.2-.2V7.2a.3.3 0 0 1 .2-.3Z" fill="#fff" />
  <path d="M2.8 9.7h12.4a.3.3 0 0 1 .3.3v1.4a.3.3 0 0 1-.3.2H2.8a.3.3 0 0 1-.2-.2V10a.3.3 0 0 1 .2-.3Z" fill="#37c2b1" />
  <path d="M2.8 12.5h12.4a.3.3 0 0 1 .3.3v1.4a.3.3 0 0 1-.3.3H2.8a.3.3 0 0 1-.2-.3v-1.4a.3.3 0 0 1 .2-.3Z" fill="#258277" />
</svg>