<svg xmlns="http://www.w3.org/2000/svg" viewBox="0 0 32 32">
  <path fill="#1572b6" d="M5.9 27.2 3.7 2h24.6l-2.2 25.2L16 30 5.9 27.2z" />
  <path fill="#33a9dc" d="m16 27.9 8.2-2.3L26 4H16v23.8z" />
  <path fill="#fff" d="M16 13.2h4l.4-3.2H16V7h7.8l-.1.8-.8 8.5H16v-3.1z" />
  <path fill="#ebebeb" d="m16 21.2-3.4-1-.3-2.4h-3l.4 4.9 6.3 1.7v-3.2z" />
  <path fill="#fff" d="m19.8 16.2-.3 4-3.5 1v3.2l6.3-1.7v-.5l.6-6h-3z" />
  <path fill="#ebebeb" d="M16 7v3H8.5v-.7l-.2-1.5v-.9H16zm0 6.2v3h-3.4v-.6l-.2-1.6v-.8H16z" />
</svg>