<svg xmlns="http://www.w3.org/2000/svg" viewBox="0 0 32 32">
  <path d="M27 15.8a2.6 2.6 0 0 0-2.5-2.6 2.6 2.6 0 0 0-.3 0l3.6-10.6H12.6l3.6 10.6H16a2.6 2.6 0 0 0-.8 5 11.4 11.4 0 0 1-2 2.6 10.4 10.4 0 0 1-3.7 2.3A3.3 3.3 0 0 1 7.8 19l.3-.6A2.6 2.6 0 1 0 6 18a20.1 20.1 0 0 0-2 4.8c-.3 2.2 0 4.4 2 5.7 4.2 3 8.9-1.8 13.8-3 1.8-.5 3.8-.4 5.3-1.3a4.5 4.5 0 0 0 2.2-3.1 4.6 4.6 0 0 0-.8-3.5 2.6 2.6 0 0 0 .6-1.7zm-8.4 0a2.6 2.6 0 0 0-1.3-2.2l2.9-5.8 2.8 5.8a2.6 2.6 0 0 0-1.1 2.2h-3.3z" fill="#c63d14" />
  <path d="M27.7 15.8a3.2 3.2 0 0 0-2.6-3.2L28.7 2h-17l3.6 10.6a3.2 3.2 0 0 0-1 6 10.9 10.9 0 0 1-1.6 1.8 9.8 9.8 0 0 1-3.1 2 2.7 2.7 0 0 1-1.2-3.3l.1-.2a3.2 3.2 0 1 0-3.3-.8l-.3.7a14 14 0 0 0-1.4 3.8c-.5 2.8.2 5 2 6.3A5.8 5.8 0 0 0 9 30c2.2 0 4.3-1 6.4-2.1a23.7 23.7 0 0 1 4.7-2l1.8-.3a10 10 0 0 0 3.7-1 5 5 0 0 0 2.4-3.5 5.3 5.3 0 0 0-.6-3.6 3.2 3.2 0 0 0 .4-1.7zm-1.2 0a2 2 0 1 1-2-2 2 2 0 0 1 2 2zm.4-12.5-3.2 9.3a3.2 3.2 0 0 0-.4.2l-3.1-6.4-3.2 6.3a3.2 3.2 0 0 0-.4 0l-3.1-9.4zm-11 10.5a2 2 0 1 1-1.9 2 2 2 0 0 1 2-2zm-8.4 0a2 2 0 1 1-2 2 2 2 0 0 1 2-2zm19.2 7a3.8 3.8 0 0 1-1.9 2.7 8.9 8.9 0 0 1-3.2.9l-2 .3a24.6 24.6 0 0 0-4.8 2c-3.2 1.6-6 3-8.5 1.2-1.9-1.3-1.8-3.7-1.6-5A12.8 12.8 0 0 1 6 19.3l.3-.6a3.2 3.2 0 0 0 .8.2 4 4 0 0 0 2.1 4.7l.3.1h.2a11 11 0 0 0 3.9-2.5 12 12 0 0 0 2-2.3 3.2 3.2 0 0 0 2.5-5.6l2-4.2 2.1 4.2a3.2 3.2 0 0 0 4.1 5 4 4 0 0 1 .4 2.5z" fill="#fff" />
</svg>