<svg xmlns="http://www.w3.org/2000/svg" viewBox="0 0 64 64">
  <path d="M17 36.8H0v.9l.1.6v.1l.1.6v.7l1 4 .2.7.2.6v.1l.2.5v.2l.2.4.2.3v.3l.3.4v.2l.3.5v.1l.3.5v.1l.3.6.1.1L18 40.6c-.6-1.2-1-2.5-1-3.8zM.7 44.5l.6-.1z" fill="#93d500" />
  <path d="M21 44.6 9.2 56.5l.2.2.5.4.4.4h.1l.5.4.6.5 2.2 1.5.5.3.3.1.3.2.4.2 1.4.7L23 45.8l-1.8-1.2z" fill="#4d5a31" />
  <path d="m19.8 43.4-.3-.5-.4-.4-.3-.4-.3-.5-14.4 8.7.7 1.2.8 1.1.4.5.5.6.4.5.1.2.3.3.2.2.3.3.1.1.4.4 12-12-.5-.3z" fill="#6ba43a" />
  <path d="m35.6 44.5-.4.4L44 59.3l1.2-.8 2.5-2-12-12z" fill="#4d5a31" />
  <path d="M42.8 60zm0 0zm.1 0zm0 0zm-.1 0zm0 0zm0 0zm0 0zm0 0zm0 0h.2-.1zm.2 0zm-.2 0zm0 0zm-.1-.6-8.4-13.9-.5.3-.5.2a11.5 11.5 0 0 1-5 1.2 11.5 11.5 0 0 1-3.3-.5l-.5-.2-.5-.2-6.4 15.6 1.3.5a28.5 28.5 0 0 0 5.8 1.4 10.2 10.2 0 0 1 .2 0h.8l.6.1h1l.3.1h.7a28.4 28.4 0 0 0 4.7-.4h.6l.3-.1.3-.1.5-.1a28.5 28.5 0 0 0 6.9-2.6l.4-.2.8-.5h.2zM21 26.8l.4-.3L12.7 12l-1.2.8-2.5 2 12 12z" fill="#93d500" />
  <path d="m8.3 15.6-.8.8-2.4 3-.1.2-.2.3-.3.4v.1A28.3 28.3 0 0 0 0 34.5v1.2h16.8V35l.1-.6a11.4 11.4 0 0 1 2.5-6.1l.4-.4.4-.5zm34.8-4.2H43l-.5-.3-.2-.1-.3-.2-.4-.2h-.1c-1-.6-2-1-3-1.4h-.1l-.7-.3c-1.8-.6-3.8-1-5.7-1.3h-.2l-.3-.1H31l-.6-.1h-.9v16.8c.8.1 1.7.3 2.5.6l12.5-12.4a28 28 0 0 0-1.4-1z" fill="#4d5a31" />
  <path d="m14 11.9-.3-.5zm-.3-.5zm14-4h-.5l-3.6.3-.5.1h-.3l-.3.1-.5.1a28.5 28.5 0 0 0-6.9 2.6l-1.4.8 8.7 14.4.5-.3a11.3 11.3 0 0 1 .5-.2 11.5 11.5 0 0 1 3.8-1l.6-.1h.5V7.3h-.5z" fill="#6ba43a" />
  <path d="M56.7 34.3v-.7l-.1-.6-.1-.7-.1-.7a28.3 28.3 0 0 0-.9-4l-.2-.6v-.1l-.2-.6v-.1l-.2-.5v-.2l-.2-.4-.2-.3v-.3l-.3-.4V24l-.3-.4v-.2l-.3-.5-.3-.6c-.5-1-1-1.8-1.7-2.7L39.2 32a11.7 11.7 0 0 1 .6 2.5h16.9v-.2z" fill="#4d5a31" />
  <path d="M39.8 35.7v1.1c-.2 2.2-1 4.3-2.6 6.1 0 .2-.2.3-.3.5l-.4.4 11.9 11.9.4-.4.4-.4 2.4-3v-.1l.3-.4.3-.4a28 28 0 0 0 4.5-14.1v-1.1H39.8z" fill="#6ba43a" />
  <path d="M61.7 2.3A7.9 7.9 0 0 0 49 11.4L31.8 28.6a7.6 7.6 0 0 0-9 1.5 7.9 7.9 0 0 0 0 11.1 7.9 7.9 0 0 0 11.1 0c2.5-2.4 3-6.1 1.5-9L52.6 15a7.9 7.9 0 0 0 9-12.7z" fill="#424143" />
</svg>